<svg id="Слой_1" data-name="Слой 1" xmlns="http://www.w3.org/2000/svg" viewBox="0 0 665.08 71.11"><title>logo</title><path d="M206.16,19.15H189.81V61.56H180V19.15H163.6V10.44h42.56Z" transform="translate(0 -4.91)"/><path d="M234,32.18a19.09,19.09,0,0,0-7.85,1.7,9.93,9.93,0,0,0-5,4.86V61.56h-9.64V23.83h8.85V31.9a17,17,0,0,1,2.38-3.5,18.24,18.24,0,0,1,3-2.7,13.89,13.89,0,0,1,3.2-1.76,8.83,8.83,0,0,1,3.14-.61h1.18a3.7,3.7,0,0,1,.76.07Z" transform="translate(0 -4.91)"/><path d="M249.71,62.28a14.34,14.34,0,0,1-5.11-.9,12.29,12.29,0,0,1-4.1-2.52,11.79,11.79,0,0,1-2.7-3.78,11.4,11.4,0,0,1-1-4.75A10.46,10.46,0,0,1,238,45.4a11.37,11.37,0,0,1,3.32-3.86,16.42,16.42,0,0,1,5.07-2.48,22.16,22.16,0,0,1,6.48-.9,27.65,27.65,0,0,1,4.93.43,20.14,20.14,0,0,1,4.29,1.23V37.66A7.54,7.54,0,0,0,260,31.9q-2.12-2-6.3-2a16.69,16.69,0,0,0-5.9,1.08,27.36,27.36,0,0,0-5.9,3.17l-3-6.12a27.84,27.84,0,0,1,15.7-4.83q8.13,0,12.64,4t4.5,11.56V50.47a3.38,3.38,0,0,0,.54,2.16,2.36,2.36,0,0,0,1.76.72v8.21a21.15,21.15,0,0,1-4.25.5,6.4,6.4,0,0,1-4.21-1.22,5.31,5.31,0,0,1-1.84-3.24l-.21-2.09a16.66,16.66,0,0,1-6.12,5A17.62,17.62,0,0,1,249.71,62.28Zm2.74-7.06a12.46,12.46,0,0,0,4.64-.86,8.38,8.38,0,0,0,3.42-2.3,3.47,3.47,0,0,0,1.59-2.74V45a23.26,23.26,0,0,0-3.75-1,19.67,19.67,0,0,0-3.88-.4,10.28,10.28,0,0,0-6.12,1.69A5.08,5.08,0,0,0,246,49.54a5.13,5.13,0,0,0,1.87,4.06A6.81,6.81,0,0,0,252.45,55.22Z" transform="translate(0 -4.91)"/><path d="M290.9,61.56,277,23.83h9.94l9.57,29.88,9.65-29.88h9.07L301.34,61.56Z" transform="translate(0 -4.91)"/><path d="M337.77,62.28a21,21,0,0,1-8.21-1.55,18.54,18.54,0,0,1-10.26-10.4,20,20,0,0,1-1.4-7.42,21,21,0,0,1,1.36-7.59,18.43,18.43,0,0,1,10.26-10.55,21,21,0,0,1,8.32-1.59,20.36,20.36,0,0,1,8.24,1.59,18.85,18.85,0,0,1,6.2,4.25,17.93,17.93,0,0,1,3.88,6.19,20.57,20.57,0,0,1,1.34,7.34c0,.63,0,1.23,0,1.8a6.69,6.69,0,0,1-.18,1.44H328.12a11,11,0,0,0,1.08,4,9.74,9.74,0,0,0,5.33,4.83,10.19,10.19,0,0,0,3.6.64,11,11,0,0,0,5.43-1.4,7.45,7.45,0,0,0,3.5-3.71l8.28,2.31a16.94,16.94,0,0,1-6.66,7.09A20.64,20.64,0,0,1,337.77,62.28Zm9.79-22.75a10,10,0,0,0-3.13-6.81,9.58,9.58,0,0,0-6.73-2.55,9.74,9.74,0,0,0-3.64.68,9.55,9.55,0,0,0-3,1.91,10,10,0,0,0-2.12,3,10.34,10.34,0,0,0-1,3.82Z" transform="translate(0 -4.91)"/><path d="M363.33,9H373V49.46a4.7,4.7,0,0,0,1,3.24,3.61,3.61,0,0,0,2.88,1.16,7.26,7.26,0,0,0,1.9-.29,12.22,12.22,0,0,0,2-.72l1.3,7.34a18.21,18.21,0,0,1-4.54,1.44,24.33,24.33,0,0,1-4.68.51,9.67,9.67,0,0,1-7-2.42,9.15,9.15,0,0,1-2.48-6.87Z" transform="translate(0 -4.91)"/><path d="M404.44,61.56V10.44h21.67a14.48,14.48,0,0,1,6.52,1.48,17.05,17.05,0,0,1,5.15,3.88,18.69,18.69,0,0,1,3.38,5.48,16.56,16.56,0,0,1,1.22,6.15A18,18,0,0,1,438,39.17,15.92,15.92,0,0,1,433,43a14.59,14.59,0,0,1-6.48,1.44h-12.1V61.56Zm9.93-25.85H425.9a5.69,5.69,0,0,0,4.57-2.23,9.25,9.25,0,0,0,1.83-6,10.06,10.06,0,0,0-.57-3.49,8.53,8.53,0,0,0-1.52-2.63A6,6,0,0,0,428,19.69a6.43,6.43,0,0,0-2.56-.54H414.37Z" transform="translate(0 -4.91)"/><path d="M448.29,9h9.64V49.46a4.74,4.74,0,0,0,1,3.24,3.61,3.61,0,0,0,2.88,1.16,7.33,7.33,0,0,0,1.91-.29,12.22,12.22,0,0,0,2-.72l1.3,7.34a18.21,18.21,0,0,1-4.54,1.44,24.5,24.5,0,0,1-4.68.51,9.67,9.67,0,0,1-7-2.42,9.15,9.15,0,0,1-2.48-6.87Z" transform="translate(0 -4.91)"/><path d="M481.48,62.28a14.26,14.26,0,0,1-5.11-.9,12.24,12.24,0,0,1-4.11-2.52,11.79,11.79,0,0,1-2.7-3.78,11.4,11.4,0,0,1-1-4.75,10.47,10.47,0,0,1,1.19-4.93,11.23,11.23,0,0,1,3.31-3.86,16.54,16.54,0,0,1,5.07-2.48,22.18,22.18,0,0,1,6.49-.9,27.81,27.81,0,0,1,4.93.43,20.21,20.21,0,0,1,4.28,1.23V37.66a7.57,7.57,0,0,0-2.12-5.76q-2.13-2-6.3-2A16.7,16.7,0,0,0,479.53,31a27.59,27.59,0,0,0-5.9,3.17L470.68,28a27.81,27.81,0,0,1,15.69-4.83q8.14,0,12.64,4t4.5,11.56V50.47a3.38,3.38,0,0,0,.54,2.16,2.38,2.38,0,0,0,1.76.72v8.21a21.14,21.14,0,0,1-4.24.5,6.43,6.43,0,0,1-4.22-1.22,5.3,5.3,0,0,1-1.83-3.24l-.22-2.09a16.66,16.66,0,0,1-6.12,5A17.61,17.61,0,0,1,481.48,62.28Zm2.73-7.06a12.55,12.55,0,0,0,4.65-.86,8.52,8.52,0,0,0,3.42-2.3,3.49,3.49,0,0,0,1.58-2.74V45a23.42,23.42,0,0,0-3.74-1,19.77,19.77,0,0,0-3.89-.4,10.28,10.28,0,0,0-6.12,1.69,5.18,5.18,0,0,0-.5,8.35A6.77,6.77,0,0,0,484.21,55.22Z" transform="translate(0 -4.91)"/><path d="M547.57,61.56h-9.65V40.39c0-3-.52-5.23-1.58-6.62A5.2,5.2,0,0,0,532,31.68a8.1,8.1,0,0,0-3,.58,10.68,10.68,0,0,0-2.85,1.62,12.91,12.91,0,0,0-2.41,2.48,9.72,9.72,0,0,0-1.58,3.17v22h-9.65V23.83h8.71v7a14.27,14.27,0,0,1,6-5.62,19.43,19.43,0,0,1,8.93-2,11.42,11.42,0,0,1,5.76,1.3,9.33,9.33,0,0,1,3.45,3.38,14.33,14.33,0,0,1,1.7,4.76,31.24,31.24,0,0,1,.46,5.4Z" transform="translate(0 -4.91)"/><path d="M591.06,61.56h-9.65V40.39q0-4.53-1.58-6.62a5.21,5.21,0,0,0-4.39-2.09,8.15,8.15,0,0,0-3,.58,10.78,10.78,0,0,0-2.84,1.62,12.91,12.91,0,0,0-2.41,2.48,10,10,0,0,0-1.59,3.17v22H556V23.83h8.71v7a14.27,14.27,0,0,1,6-5.62,19.39,19.39,0,0,1,8.92-2,11.4,11.4,0,0,1,5.76,1.3,9.36,9.36,0,0,1,3.46,3.38,14.31,14.31,0,0,1,1.69,4.76,31.24,31.24,0,0,1,.47,5.4Z" transform="translate(0 -4.91)"/><path d="M617,62.28a21,21,0,0,1-8.21-1.55,18.54,18.54,0,0,1-10.26-10.4,20,20,0,0,1-1.4-7.42,21,21,0,0,1,1.36-7.59,18.43,18.43,0,0,1,10.26-10.55,21,21,0,0,1,8.32-1.59,20.36,20.36,0,0,1,8.24,1.59,18.85,18.85,0,0,1,6.2,4.25,17.93,17.93,0,0,1,3.88,6.19,20.57,20.57,0,0,1,1.34,7.34c0,.63,0,1.23,0,1.8a6.69,6.69,0,0,1-.18,1.44H607.33a11,11,0,0,0,1.08,4,9.74,9.74,0,0,0,5.33,4.83,10.19,10.19,0,0,0,3.6.64,11,11,0,0,0,5.43-1.4,7.45,7.45,0,0,0,3.5-3.71l8.28,2.31a16.94,16.94,0,0,1-6.66,7.09A20.64,20.64,0,0,1,617,62.28Zm9.79-22.75a10,10,0,0,0-3.13-6.81,9.58,9.58,0,0,0-6.73-2.55,9.74,9.74,0,0,0-3.64.68,9.55,9.55,0,0,0-3,1.91,10,10,0,0,0-2.12,3,10.34,10.34,0,0,0-1,3.82Z" transform="translate(0 -4.91)"/><path d="M665.08,32.18a19.05,19.05,0,0,0-7.85,1.7,9.89,9.89,0,0,0-5,4.86V61.56h-9.65V23.83h8.86V31.9a17.35,17.35,0,0,1,2.37-3.5,18.67,18.67,0,0,1,2.95-2.7A14.16,14.16,0,0,1,660,23.94a8.78,8.78,0,0,1,3.13-.61h1.19a3.84,3.84,0,0,1,.76.07Z" transform="translate(0 -4.91)"/><path d="M130,17C130,39.53,21.59,64.35,13.38,64.35c-4.6,0-9.83-1.06-9.83-5.31,0-1.41,1.64-3.46,4.51-5.93h0L.45,39.59a3.47,3.47,0,0,1,1.73-4.93l1.31-.53a8.72,8.72,0,0,1,7.3.39L24.6,41.83C30,38.64,36.08,35.3,42.51,32L15.59,14.55a3.48,3.48,0,0,1,0-5.86L17.84,7.3a15.6,15.6,0,0,1,12.3-1.87L74.93,17.24c14-5.54,26.59-9.33,34.07-9.33,2,0,4,.06,5.92.19l-13.53,6.11-.32,4.55L122,9.16C127,10.36,130,12.58,130,17ZM75.51,55.86l16.71,19a3.47,3.47,0,0,0,4.07.86l2.24-1a10.43,10.43,0,0,0,6-10.66L102.4,46.1a1.74,1.74,0,0,0-2.3-1.43l-23.86,8.4A1.74,1.74,0,0,0,75.51,55.86Z" transform="translate(0 -4.91)"/></svg>